HIERARCHY
ROOT Hips
{
	OFFSET -3.958830 18.904000 13.208200
	CHANNELS 6 Xposition Yposition Zposition Zrotation Yrotation Xrotation 
	JOINT LHipJoint
	{
		OFFSET 0.000000 0.000000 0.000000
		CHANNELS 3 Zrotation Yrotation Xrotation
		JOINT LeftUpLeg
		{
			OFFSET 1.800000 -1.400000 0.085000
			CHANNELS 3 Zrotation Yrotation Xrotation
			JOINT LeftLeg
			{
				OFFSET 2.215000 -6.000000 0.000000
				CHANNELS 3 Zrotation Yrotation Xrotation
				JOINT LeftFoot
				{
					OFFSET 2.500000 -6.900000 0.000000
					CHANNELS 3 Zrotation Yrotation Xrotation
					JOINT LeftToeBase
					{
						OFFSET 0.200000 -0.500000 1.950000
						CHANNELS 3 Zrotation Yrotation Xrotation
						End Site
						{
							OFFSET 0.000000 0.000000 0.000000
						}
					}
				}
			}
		}
	}
	JOINT RHipJoint
	{
		OFFSET 0.000000 0.000000 0.000000
		CHANNELS 3 Zrotation Yrotation Xrotation
		JOINT RightUpLeg
		{
			OFFSET -1.800000 -1.400000 0.085000
			CHANNELS 3 Zrotation Yrotation Xrotation
			JOINT RightLeg
			{
				OFFSET -2.215000 -6.000000 0.000000
				CHANNELS 3 Zrotation Yrotation Xrotation
				JOINT RightFoot
				{
					OFFSET -2.500000 -6.900000 0.000000
					CHANNELS 3 Zrotation Yrotation Xrotation
					JOINT RightToeBase
					{
						OFFSET -0.200000 -0.500000 1.950000
						CHANNELS 3 Zrotation Yrotation Xrotation
						End Site
						{
							OFFSET 0.000000 0.000000 0.000000
						}
					}
				}
			}
		}
	}
	JOINT LowerBack
	{
		OFFSET 0.000000 0.000000 0.000000
		CHANNELS 3 Zrotation Yrotation Xrotation
		JOINT Spine
		{
			OFFSET -0.087000 1.940000 -0.288900
			CHANNELS 3 Zrotation Yrotation Xrotation
			JOINT Spine1
			{
				OFFSET 0.000000 1.950000 0.060000
				CHANNELS 3 Zrotation Yrotation Xrotation
				JOINT Neck
				{
					OFFSET 0.000000 0.000000 0.000000
					CHANNELS 3 Zrotation Yrotation Xrotation
					JOINT Neck1
					{
						OFFSET 0.000000 1.600000 0.340000
						CHANNELS 3 Zrotation Yrotation Xrotation
						JOINT Head
						{
							OFFSET 0.000000 1.667000 -0.240000
							CHANNELS 3 Zrotation Yrotation Xrotation
							End Site
							{
								OFFSET 0.000000 0.000000 0.000000
							}
						}
					}
				}
				JOINT LeftShoulder
				{
					OFFSET 0.000000 0.000000 0.000000
					CHANNELS 3 Zrotation Yrotation Xrotation
					JOINT LeftArm
					{
						OFFSET 2.700000 1.550000 -0.730000
						CHANNELS 3 Zrotation Yrotation Xrotation
						JOINT LeftForeArm
						{
							OFFSET 5.450000 0.000000 0.000000
							CHANNELS 3 Zrotation Yrotation Xrotation
							JOINT LeftHand
							{
								OFFSET 3.450000 0.000000 0.000000
								CHANNELS 3 Zrotation Yrotation Xrotation
								JOINT LeftHandIndex1
								{
									OFFSET 0.750000 0.000000 0.000000
									CHANNELS 3 Zrotation Yrotation Xrotation
									End Site
									{
										OFFSET 0.000000 0.000000 0.000000
									}
								}
							}
						}
					}
				}
				JOINT RightShoulder
				{
					OFFSET 0.000000 0.000000 0.000000
					CHANNELS 3 Zrotation Yrotation Xrotation
					JOINT RightArm
					{
						OFFSET -2.700000 1.550000 -0.730000
						CHANNELS 3 Zrotation Yrotation Xrotation
						JOINT RightForeArm
						{
							OFFSET -5.450000 0.000000 0.000000
							CHANNELS 3 Zrotation Yrotation Xrotation
							JOINT RightHand
							{
								OFFSET -3.450000 0.000000 0.000000
								CHANNELS 3 Zrotation Yrotation Xrotation
								JOINT RightHandIndex1
								{
									OFFSET -0.750000 0.000000 0.000000
									CHANNELS 3 Zrotation Yrotation Xrotation
									End Site
									{
										OFFSET 0.000000 0.000000 0.000000
									}
								}
							}
						}
					}
				}
			}
		}
	}
}
MOTION
Frames: 14
Frame Time: 0.016667
-0.595550 14.516830 -3.495850 -53.217197 2.099703 11.251246 -15.270089 9.835431 5.369752 0.957874 -14.467984 -47.714675 1.696300 10.911324 70.191749 1.302984 11.450584 0.634859 1.471100 1.672980 1.314770 18.902705 -8.508361 4.107039 26.142161 9.301842 -27.195350 -45.571906 4.249770 12.997304 -1.432462 -5.097357 2.434290 0.705420 -0.333610 0.158460 -4.340070 -0.029138 -9.263669 16.193675 -4.105278 69.109680 -4.917264 5.626869 31.402489 -0.097318 1.180970 -9.831250 -0.906236 4.302709 43.022053 -4.957060 10.011990 -20.650660 6.369856 -24.024879 2.414286 1.662616 -29.600453 -1.585801 13.222401 3.547115 -1.739982 -4.143449 2.720475 0.210850 -0.028100 0.379750 0.061850 -8.523259 22.325403 9.125908 32.861976 14.599723 -3.958212 -27.848824 3.495179 -3.989557 2.374581 -2.130656 0.494020 0.170720 -0.629310 -0.215120 
-0.641490 14.457070 -3.487300 -55.047040 1.310728 10.724153 -15.207533 9.658986 5.313668 3.155551 -13.588040 -48.365749 0.974755 12.092169 71.866776 1.381592 11.947951 0.494212 1.452910 1.647480 1.298730 18.982265 -8.539645 4.196288 27.423638 9.593796 -26.246817 -45.454685 4.520817 13.825763 -1.437098 -5.178342 2.417520 0.701080 -0.304350 0.149860 -4.546833 0.426996 -9.306793 18.263707 -5.114429 68.366323 -5.925973 5.839012 31.139719 0.002041 0.866828 -9.361608 -1.462394 4.337346 43.110691 -4.719390 9.760890 -19.979450 6.446306 -22.795974 2.241732 0.193212 -31.051885 -0.696604 12.933959 3.584121 -1.722493 -4.152357 2.721181 0.198000 -0.011680 0.349600 0.057790 -8.703218 21.012506 8.533096 33.558015 15.118622 -3.861490 -28.363477 3.990062 -4.191591 2.356075 -2.128514 0.478060 0.185710 -0.610400 -0.214910 
-0.699310 14.351590 -3.488860 -55.988953 0.954577 9.852476 -15.180537 9.554475 5.317450 3.930341 -13.453736 -48.456125 0.698274 12.918926 73.842431 1.478269 12.448209 0.359909 1.413050 1.589180 1.249940 19.020573 -8.549860 4.219589 27.308656 9.933415 -26.466621 -45.415963 5.888987 18.002256 -1.470365 -5.593348 2.292012 0.684840 -0.253450 0.163860 -4.649033 0.632621 -9.325450 19.755047 -5.967339 67.415613 -6.471159 5.577859 30.515715 0.125910 0.817077 -8.623143 -1.527944 4.127695 42.866958 -4.303250 9.364040 -18.303540 6.772459 -21.002399 1.797910 -2.297320 -33.369046 0.789904 12.386913 3.738507 -1.703148 -4.193360 2.762903 0.163530 0.033690 0.286140 0.045250 -9.138234 18.874256 7.691310 34.469458 15.777154 -3.947786 -29.690269 5.154347 -4.735933 2.316369 -2.162672 0.464290 0.165380 -0.569400 -0.212800 
-0.756100 14.308410 -3.492600 -56.892896 -0.902554 9.477724 -15.182270 9.606359 5.240047 4.731163 -12.331252 -48.585174 0.709229 13.710047 74.607195 1.515330 12.734823 0.295590 1.368200 1.533320 1.199370 19.012503 -8.542636 4.277332 27.296434 10.273907 -25.613214 -44.738259 6.705474 20.253639 -1.482074 -5.759161 2.264820 0.672920 -0.211340 0.153990 -4.653170 0.650848 -9.318362 19.427424 -4.841868 66.896270 -6.254204 6.419640 30.145127 0.112115 0.910346 -8.374180 -1.419296 4.056832 43.369457 -4.210020 9.343150 -17.395280 6.430399 -20.050482 1.525457 -3.589054 -34.509618 1.576257 11.899527 4.186515 -1.658669 -4.220489 2.739922 0.165180 0.059320 0.251830 0.056470 -9.087766 18.328527 7.355682 34.272498 16.181724 -4.974388 -31.935835 7.233864 -5.825140 2.254748 -2.184384 0.424710 0.184480 -0.545970 -0.216100 
-0.810580 14.324870 -3.498690 -55.911549 -1.733221 9.063031 -15.264671 9.902044 5.201881 3.424239 -12.161275 -48.022216 1.615022 13.327232 74.334603 1.496638 12.651766 0.337391 1.337370 1.490160 1.202860 18.902085 -8.506928 4.215249 25.846278 10.204035 -25.045217 -44.196910 7.979116 23.866270 -1.536864 -6.113185 2.164827 0.663720 -0.197770 0.148800 -4.383402 0.089604 -9.229854 16.533513 -2.252101 66.659380 -4.358587 7.195675 30.496960 -0.028206 1.647822 -8.347255 0.072769 3.792343 43.296703 -5.160460 10.162190 -16.569190 6.716479 -20.196837 1.766833 -3.766375 -34.160125 1.648669 11.567025 4.753538 -1.607726 -4.258812 2.718919 0.155100 0.089140 0.231660 0.051730 -9.548668 19.048928 7.404660 34.762452 16.630181 -6.605027 -34.892951 9.367347 -7.411570 2.200874 -2.242874 0.395340 0.184350 -0.543540 -0.236510 
-0.815900 14.390690 -3.511330 -54.832819 -2.131610 8.997097 -15.370729 10.300298 5.177607 1.924843 -12.045889 -47.407844 2.646497 12.350919 72.645825 1.405900 12.226607 0.439042 1.341250 1.493440 1.244950 18.757533 -8.476185 4.094805 23.693827 10.039373 -24.510755 -41.882383 8.959445 28.300580 -1.583746 -6.359648 2.058005 0.659530 -0.229030 0.185010 -4.024682 -0.676044 -9.097837 13.288916 0.391760 66.473908 -1.832368 7.779572 31.387678 -0.348440 2.322989 -8.531562 1.346312 3.654578 43.235449 -6.575170 11.059440 -16.665780 6.731429 -21.421738 2.171694 -3.048760 -33.159101 1.151569 11.064973 6.215147 -1.567137 -4.318957 2.721595 0.140760 0.103510 0.253700 0.024640 -9.502076 20.953726 7.627645 33.606253 16.988774 -8.909244 -38.214128 11.217574 -9.321883 2.173101 -2.320487 0.419960 0.141730 -0.548330 -0.252110 
-0.838900 14.493450 -3.544380 -52.880611 -2.971913 9.701912 -15.534716 10.694608 5.213374 0.421316 -11.904796 -47.759664 2.986341 12.066972 70.418498 1.256415 11.886729 0.540266 1.306540 1.436260 1.243410 18.575400 -8.317777 3.957784 21.258523 10.248184 -24.191101 -40.201042 10.110899 32.913501 -1.650527 -6.766008 1.942659 0.655050 -0.188650 0.183840 -3.537196 -1.707779 -8.996529 7.828951 4.874641 65.991432 1.845599 9.153470 32.017412 -1.562502 3.514723 -8.612415 3.549926 3.219362 42.582316 -7.000200 11.700690 -16.883780 7.365309 -22.073243 2.449326 -2.268954 -32.174255 1.122516 10.166874 6.898724 -1.573130 -4.382022 2.631458 0.167560 0.135470 0.234120 0.015910 -8.728318 22.833663 7.766303 32.525600 17.371189 -12.459153 -43.230085 15.778052 -12.982228 2.049149 -2.328625 0.364880 0.185900 -0.514920 -0.282040 
-0.857870 14.588560 -3.606610 -51.440966 -4.296794 11.408508 -15.673080 10.893960 5.335912 -0.067843 -11.673747 -49.659467 2.511638 12.385062 68.046652 1.148614 11.548130 0.605236 1.286620 1.406500 1.259070 18.441095 -8.150679 3.848858 18.809830 10.883812 -24.477501 -38.086612 11.190828 38.505994 -1.767157 -7.268379 1.769011 0.622270 -0.210450 0.202360 -3.161046 -2.446094 -8.971459 3.466798 8.765005 64.825490 4.521872 10.603169 31.723315 -2.486178 4.343262 -8.898336 4.867337 2.598651 43.105649 -7.374500 11.797670 -18.204280 7.525596 -22.589957 2.673462 -1.580450 -31.405592 1.102741 9.293925 6.980564 -1.543534 -4.382328 2.575696 0.204940 0.112650 0.267690 -0.016040 -7.708136 24.601409 7.938120 32.016837 17.603318 -15.714592 -47.630902 21.171225 -16.983772 1.971902 -2.266236 0.370910 0.183780 -0.490760 -0.292010 
-0.830140 14.683170 -3.662910 -50.251350 -4.380717 13.456857 -15.724849 11.016026 5.508344 -1.413933 -12.034613 -51.302530 3.360343 11.074199 64.458890 0.897423 10.721293 0.803573 1.269140 1.343110 1.305150 18.368719 -8.225832 3.657948 16.357603 10.628874 -24.666033 -34.521914 10.648935 41.880991 -1.752969 -7.219399 1.735489 0.577630 -0.270290 0.213990 -2.983727 -2.730548 -8.919959 1.350541 10.394583 63.988849 5.435402 10.928100 31.112490 -2.772312 4.645758 -9.631484 5.402731 2.400154 44.752032 -7.804800 11.787730 -20.123160 6.933782 -24.143447 3.209220 0.506283 -29.429836 0.230519 8.711682 6.988560 -1.589130 -4.374221 2.489805 0.293300 0.054440 0.307610 -0.079610 -6.419672 26.794210 7.953465 31.535039 18.859361 -18.765384 -51.300227 26.416389 -21.167459 1.910493 -2.149719 0.360420 0.171080 -0.453220 -0.338700 
-0.809150 14.815320 -3.729360 -47.939164 -3.641196 16.361771 -15.846165 11.142257 5.838264 -2.970643 -13.209594 -53.648770 3.850699 9.768993 60.065372 0.624103 9.735389 1.068905 1.204770 1.225490 1.313030 18.246364 -8.189136 3.370029 13.909676 9.851591 -25.146849 -31.070640 9.514347 43.766555 -1.642090 -6.972112 1.780581 0.516890 -0.318330 0.194840 -2.639806 -3.388937 -8.891177 -2.302747 12.820993 62.747921 7.658723 11.165674 30.373995 -3.467599 4.940327 -10.567876 5.837337 2.316319 46.084191 -8.137100 12.129340 -21.158490 7.140736 -25.635338 3.610539 2.005874 -27.696531 -0.458390 8.944705 7.126251 -1.603497 -4.369279 2.421697 0.368790 0.010130 0.303210 -0.154930 -5.090914 28.961399 8.312167 30.273525 19.055855 -21.789650 -54.416378 32.869967 -25.755479 1.853748 -1.983783 0.317470 0.147120 -0.400580 -0.398110 
-0.782970 14.939920 -3.772130 -45.757050 -3.766210 18.964863 -15.922185 11.267160 6.079669 -4.836949 -14.088229 -54.873956 2.680201 9.705085 56.157065 0.502733 8.927739 1.321097 1.224290 1.199720 1.409670 18.152905 -8.243658 3.112734 12.382987 8.902308 -24.283215 -28.276544 8.533098 44.913407 -1.602320 -6.700442 1.847638 0.485560 -0.436600 0.154420 -2.402250 -3.814822 -8.846140 -5.492690 15.032227 61.799811 8.791685 11.341205 29.580046 -3.677988 4.683252 -11.642307 5.305992 2.825968 48.615478 -9.234730 13.034690 -22.842700 6.989292 -27.081767 4.102889 3.849009 -25.589086 -1.391939 8.995760 6.907047 -1.534150 -4.276120 2.361626 0.444570 -0.088500 0.364320 -0.179040 -4.251025 31.277166 8.539942 29.172618 20.611605 -23.930145 -56.180869 37.755256 -29.303908 1.889477 -1.858134 0.309870 0.121300 -0.454050 -0.450060 
-0.723040 15.070580 -3.821200 -42.852223 -4.069860 21.759375 -16.012601 11.415703 6.378641 -8.266281 -15.478782 -55.818804 4.438324 8.036461 52.381951 0.411681 7.792523 1.673522 1.271780 1.277940 1.424550 18.051254 -8.313676 2.770093 10.203914 7.714014 -23.369633 -24.853102 7.115585 46.324596 -1.583130 -6.470711 1.906092 0.466880 -0.519110 0.181140 -2.139866 -4.325529 -8.793634 -9.269930 17.432498 61.065503 10.121746 11.107330 28.553471 -3.886431 4.104679 -12.704942 4.171168 3.537939 50.691549 -9.246300 13.240830 -24.925320 6.839202 -28.480341 4.262070 5.702331 -23.633921 -2.288692 9.077442 6.864146 -1.466892 -4.219021 2.355048 0.464750 -0.163190 0.456270 -0.161970 -3.238847 33.710090 8.470665 25.739751 22.604975 -24.977159 -54.551516 40.359472 -29.436744 1.969909 -1.811927 0.397370 0.071520 -0.504270 -0.413740 
-0.686130 15.170910 -3.887200 -39.613811 -3.700513 24.700212 -16.116842 11.408640 6.842058 -10.525302 -17.615031 -57.618783 6.006256 7.152768 52.467835 0.432153 7.533293 1.730716 1.270390 1.285850 1.386770 17.970896 -8.336609 2.355328 8.277088 6.077297 -22.631234 -21.915063 5.330391 44.467768 -1.426969 -5.807237 2.114049 0.439880 -0.601220 0.144790 -1.901576 -4.739181 -8.844789 -12.218326 19.118648 60.746136 11.529267 10.454417 26.813291 -3.952472 3.165770 -14.276965 2.131717 4.039869 53.734427 -7.773160 12.658040 -26.406580 7.365513 -29.992931 4.458724 6.469327 -21.826708 -2.811215 9.843737 6.468333 -1.361786 -4.118830 2.352587 0.528150 -0.260430 0.495580 -0.173480 -2.688805 36.068571 8.611744 22.594070 24.072915 -25.716046 -52.359901 42.400932 -28.607091 2.049220 -1.756048 0.417540 0.034290 -0.513820 -0.409680 
-0.654950 15.284520 -3.978470 -35.018616 -3.675422 28.565739 -16.262884 11.204122 7.500118 -11.579827 -20.858631 -61.404903 5.775333 7.230180 52.916691 0.524775 7.514130 1.739502 1.259580 1.284010 1.324060 17.904356 -8.215884 1.898585 5.093820 4.775577 -24.093081 -19.351090 3.877759 42.334438 -1.258497 -5.148164 2.313348 0.407750 -0.619170 0.141420 -1.637873 -5.200400 -8.982575 -16.197332 21.275340 59.746377 13.677797 9.052702 24.551925 -4.358945 1.999650 -15.532940 -0.153292 5.062126 55.924530 -5.293000 12.190850 -26.630620 8.854910 -31.056400 4.307355 6.405174 -20.628848 -3.023567 10.699653 6.087913 -1.273471 -4.068688 2.387698 0.549480 -0.320550 0.521160 -0.152490 -2.244011 37.809912 8.067105 18.868231 26.433485 -24.872286 -48.551291 42.115940 -25.569147 2.089158 -1.696850 0.448260 0.008600 -0.519960 -0.370460 
